solid OpenSCAD_Model
  facet normal -1 0 0
    outer loop
      vertex -7.5 -80 0
      vertex -7.5 80 15
      vertex -7.5 80 0
    endloop
  endfacet
  facet normal -1 -0 0
    outer loop
      vertex -7.5 80 15
      vertex -7.5 -80 0
      vertex -7.5 -80 15
    endloop
  endfacet
  facet normal 0 0 1
    outer loop
      vertex 12.5 80 15
      vertex 9.5 77 15
      vertex 12.5 -80 15
    endloop
  endfacet
  facet normal 0 0 1
    outer loop
      vertex 12.5 80 15
      vertex -4.5 77 15
      vertex 9.5 77 15
    endloop
  endfacet
  facet normal 0 0 1
    outer loop
      vertex -4.5 77 15
      vertex -7.5 80 15
      vertex -4.5 -77 15
    endloop
  endfacet
  facet normal -0 0 1
    outer loop
      vertex -7.5 80 15
      vertex -4.5 77 15
      vertex 12.5 80 15
    endloop
  endfacet
  facet normal -0 0 1
    outer loop
      vertex 9.5 -77 15
      vertex 12.5 -80 15
      vertex 9.5 77 15
    endloop
  endfacet
  facet normal -0 0 1
    outer loop
      vertex -4.5 -77 15
      vertex 12.5 -80 15
      vertex 9.5 -77 15
    endloop
  endfacet
  facet normal 0 0 1
    outer loop
      vertex -4.5 -77 15
      vertex -7.5 -80 15
      vertex 12.5 -80 15
    endloop
  endfacet
  facet normal 0 0 1
    outer loop
      vertex -7.5 -80 15
      vertex -4.5 -77 15
      vertex -7.5 80 15
    endloop
  endfacet
  facet normal 1 -0 0
    outer loop
      vertex 12.5 -80 15
      vertex 12.5 80 0
      vertex 12.5 80 15
    endloop
  endfacet
  facet normal 1 0 0
    outer loop
      vertex 12.5 80 0
      vertex 12.5 -80 15
      vertex 12.5 -80 0
    endloop
  endfacet
  facet normal 0 1 -0
    outer loop
      vertex 12.5 80 0
      vertex -7.5 80 15
      vertex 12.5 80 15
    endloop
  endfacet
  facet normal 0 1 0
    outer loop
      vertex -7.5 80 15
      vertex 12.5 80 0
      vertex -7.5 80 0
    endloop
  endfacet
  facet normal 0 0 -1
    outer loop
      vertex 3.71352 69.1183 0
      vertex 12.5 80 0
      vertex 3.71352 50.8817 0
    endloop
  endfacet
  facet normal 0 0 -1
    outer loop
      vertex 12.5 80 0
      vertex 3.71352 69.1183 0
      vertex 4 70 0
    endloop
  endfacet
  facet normal 0 0 -1
    outer loop
      vertex 2.96352 51.4266 0
      vertex 3.71352 69.1183 0
      vertex 3.71352 50.8817 0
    endloop
  endfacet
  facet normal 0 0 -1
    outer loop
      vertex 2.96352 51.4266 0
      vertex 2.96352 68.5734 0
      vertex 3.71352 69.1183 0
    endloop
  endfacet
  facet normal 0 0 -1
    outer loop
      vertex 2.03647 51.4266 0
      vertex 2.96352 68.5734 0
      vertex 2.96352 51.4266 0
    endloop
  endfacet
  facet normal 0 0 -1
    outer loop
      vertex 2.03647 51.4266 0
      vertex 2.03647 68.5734 0
      vertex 2.96352 68.5734 0
    endloop
  endfacet
  facet normal 0 0 -1
    outer loop
      vertex 1.28647 50.8817 0
      vertex 2.03647 68.5734 0
      vertex 2.03647 51.4266 0
    endloop
  endfacet
  facet normal 0 0 -1
    outer loop
      vertex 1.28647 50.8817 0
      vertex 1.28647 69.1183 0
      vertex 2.03647 68.5734 0
    endloop
  endfacet
  facet normal 0 0 -1
    outer loop
      vertex -7.5 80 0
      vertex 1.28647 50.8817 0
      vertex 1 50 0
    endloop
  endfacet
  facet normal 0 0 -1
    outer loop
      vertex 1.28647 50.8817 0
      vertex -7.5 80 0
      vertex 1.28647 69.1183 0
    endloop
  endfacet
  facet normal 0 0 -1
    outer loop
      vertex 3.71352 30.8817 0
      vertex 4 50 0
      vertex 4 30 0
    endloop
  endfacet
  facet normal 0 0 -1
    outer loop
      vertex 3.71352 30.8817 0
      vertex 3.71352 49.1183 0
      vertex 4 50 0
    endloop
  endfacet
  facet normal 0 0 -1
    outer loop
      vertex 2.96352 31.4266 0
      vertex 3.71352 49.1183 0
      vertex 3.71352 30.8817 0
    endloop
  endfacet
  facet normal 0 0 -1
    outer loop
      vertex 2.96352 31.4266 0
      vertex 2.96352 48.5734 0
      vertex 3.71352 49.1183 0
    endloop
  endfacet
  facet normal 0 0 -1
    outer loop
      vertex 2.03647 31.4266 0
      vertex 2.96352 48.5734 0
      vertex 2.96352 31.4266 0
    endloop
  endfacet
  facet normal 0 0 -1
    outer loop
      vertex 2.03647 31.4266 0
      vertex 2.03647 48.5734 0
      vertex 2.96352 48.5734 0
    endloop
  endfacet
  facet normal 0 0 -1
    outer loop
      vertex 1.28647 30.8817 0
      vertex 2.03647 48.5734 0
      vertex 2.03647 31.4266 0
    endloop
  endfacet
  facet normal 0 0 -1
    outer loop
      vertex 1.28647 30.8817 0
      vertex 1.28647 49.1183 0
      vertex 2.03647 48.5734 0
    endloop
  endfacet
  facet normal 0 0 -1
    outer loop
      vertex 1 30 0
      vertex 1.28647 49.1183 0
      vertex 1.28647 30.8817 0
    endloop
  endfacet
  facet normal -0 0 -1
    outer loop
      vertex 1.28647 49.1183 0
      vertex 1 30 0
      vertex 1 50 0
    endloop
  endfacet
  facet normal 0 0 -1
    outer loop
      vertex 3.71352 10.8817 0
      vertex 4 30 0
      vertex 4 10 0
    endloop
  endfacet
  facet normal 0 0 -1
    outer loop
      vertex 3.71352 10.8817 0
      vertex 3.71352 29.1183 0
      vertex 4 30 0
    endloop
  endfacet
  facet normal 0 0 -1
    outer loop
      vertex 2.96352 11.4266 0
      vertex 3.71352 29.1183 0
      vertex 3.71352 10.8817 0
    endloop
  endfacet
  facet normal 0 0 -1
    outer loop
      vertex 2.96352 11.4266 0
      vertex 2.96352 28.5734 0
      vertex 3.71352 29.1183 0
    endloop
  endfacet
  facet normal 0 0 -1
    outer loop
      vertex 2.03647 11.4266 0
      vertex 2.96352 28.5734 0
      vertex 2.96352 11.4266 0
    endloop
  endfacet
  facet normal 0 0 -1
    outer loop
      vertex 2.03647 11.4266 0
      vertex 2.03647 28.5734 0
      vertex 2.96352 28.5734 0
    endloop
  endfacet
  facet normal 0 0 -1
    outer loop
      vertex 1.28647 10.8817 0
      vertex 2.03647 28.5734 0
      vertex 2.03647 11.4266 0
    endloop
  endfacet
  facet normal 0 0 -1
    outer loop
      vertex 1.28647 10.8817 0
      vertex 1.28647 29.1183 0
      vertex 2.03647 28.5734 0
    endloop
  endfacet
  facet normal 0 0 -1
    outer loop
      vertex 1 10 0
      vertex 1.28647 29.1183 0
      vertex 1.28647 10.8817 0
    endloop
  endfacet
  facet normal -0 0 -1
    outer loop
      vertex 1.28647 29.1183 0
      vertex 1 10 0
      vertex 1 30 0
    endloop
  endfacet
  facet normal 0 0 -1
    outer loop
      vertex 3.71352 -9.11832 0
      vertex 4 10 0
      vertex 4 -10 0
    endloop
  endfacet
  facet normal 0 0 -1
    outer loop
      vertex 3.71352 -9.11832 0
      vertex 3.71352 9.11832 0
      vertex 4 10 0
    endloop
  endfacet
  facet normal 0 0 -1
    outer loop
      vertex 2.96352 -8.57342 0
      vertex 3.71352 9.11832 0
      vertex 3.71352 -9.11832 0
    endloop
  endfacet
  facet normal 0 0 -1
    outer loop
      vertex 2.96352 -8.57342 0
      vertex 2.96352 8.57341 0
      vertex 3.71352 9.11832 0
    endloop
  endfacet
  facet normal 0 0 -1
    outer loop
      vertex 2.03647 -8.57342 0
      vertex 2.96352 8.57341 0
      vertex 2.96352 -8.57342 0
    endloop
  endfacet
  facet normal 0 0 -1
    outer loop
      vertex 2.03647 -8.57342 0
      vertex 2.03647 8.57341 0
      vertex 2.96352 8.57341 0
    endloop
  endfacet
  facet normal 0 0 -1
    outer loop
      vertex 1.28647 -9.11832 0
      vertex 2.03647 8.57341 0
      vertex 2.03647 -8.57342 0
    endloop
  endfacet
  facet normal 0 0 -1
    outer loop
      vertex 1.28647 -9.11832 0
      vertex 1.28647 9.11832 0
      vertex 2.03647 8.57341 0
    endloop
  endfacet
  facet normal 0 0 -1
    outer loop
      vertex 1 -10 0
      vertex 1.28647 9.11832 0
      vertex 1.28647 -9.11832 0
    endloop
  endfacet
  facet normal -0 0 -1
    outer loop
      vertex 1.28647 9.11832 0
      vertex 1 -10 0
      vertex 1 10 0
    endloop
  endfacet
  facet normal 0 0 -1
    outer loop
      vertex 3.71352 -29.1183 0
      vertex 4 -10 0
      vertex 4 -30 0
    endloop
  endfacet
  facet normal 0 0 -1
    outer loop
      vertex 3.71352 -29.1183 0
      vertex 3.71352 -10.8817 0
      vertex 4 -10 0
    endloop
  endfacet
  facet normal 0 0 -1
    outer loop
      vertex 2.96352 -28.5734 0
      vertex 3.71352 -10.8817 0
      vertex 3.71352 -29.1183 0
    endloop
  endfacet
  facet normal 0 0 -1
    outer loop
      vertex 2.96352 -28.5734 0
      vertex 2.96352 -11.4266 0
      vertex 3.71352 -10.8817 0
    endloop
  endfacet
  facet normal 0 0 -1
    outer loop
      vertex 2.03647 -28.5734 0
      vertex 2.96352 -11.4266 0
      vertex 2.96352 -28.5734 0
    endloop
  endfacet
  facet normal 0 0 -1
    outer loop
      vertex 2.03647 -28.5734 0
      vertex 2.03647 -11.4266 0
      vertex 2.96352 -11.4266 0
    endloop
  endfacet
  facet normal 0 0 -1
    outer loop
      vertex 1.28647 -29.1183 0
      vertex 2.03647 -11.4266 0
      vertex 2.03647 -28.5734 0
    endloop
  endfacet
  facet normal 0 0 -1
    outer loop
      vertex 1.28647 -29.1183 0
      vertex 1.28647 -10.8817 0
      vertex 2.03647 -11.4266 0
    endloop
  endfacet
  facet normal 0 0 -1
    outer loop
      vertex 1 -30 0
      vertex 1.28647 -10.8817 0
      vertex 1.28647 -29.1183 0
    endloop
  endfacet
  facet normal -0 0 -1
    outer loop
      vertex 1.28647 -10.8817 0
      vertex 1 -30 0
      vertex 1 -10 0
    endloop
  endfacet
  facet normal 0 0 -1
    outer loop
      vertex 3.71352 -49.1183 0
      vertex 4 -30 0
      vertex 4 -50 0
    endloop
  endfacet
  facet normal 0 0 -1
    outer loop
      vertex 3.71352 -49.1183 0
      vertex 3.71352 -30.8817 0
      vertex 4 -30 0
    endloop
  endfacet
  facet normal 0 0 -1
    outer loop
      vertex 2.96352 -48.5734 0
      vertex 3.71352 -30.8817 0
      vertex 3.71352 -49.1183 0
    endloop
  endfacet
  facet normal 0 0 -1
    outer loop
      vertex 2.96352 -48.5734 0
      vertex 2.96352 -31.4266 0
      vertex 3.71352 -30.8817 0
    endloop
  endfacet
  facet normal 0 0 -1
    outer loop
      vertex 2.03647 -48.5734 0
      vertex 2.96352 -31.4266 0
      vertex 2.96352 -48.5734 0
    endloop
  endfacet
  facet normal 0 0 -1
    outer loop
      vertex 2.03647 -48.5734 0
      vertex 2.03647 -31.4266 0
      vertex 2.96352 -31.4266 0
    endloop
  endfacet
  facet normal 0 0 -1
    outer loop
      vertex 1.28647 -49.1183 0
      vertex 2.03647 -31.4266 0
      vertex 2.03647 -48.5734 0
    endloop
  endfacet
  facet normal 0 0 -1
    outer loop
      vertex 1.28647 -49.1183 0
      vertex 1.28647 -30.8817 0
      vertex 2.03647 -31.4266 0
    endloop
  endfacet
  facet normal 0 0 -1
    outer loop
      vertex 1 -50 0
      vertex 1.28647 -30.8817 0
      vertex 1.28647 -49.1183 0
    endloop
  endfacet
  facet normal -0 0 -1
    outer loop
      vertex 1.28647 -30.8817 0
      vertex 1 -50 0
      vertex 1 -30 0
    endloop
  endfacet
  facet normal 0 0 -1
    outer loop
      vertex 3.71352 -50.8817 0
      vertex 12.5 -80 0
      vertex 3.71352 -69.1183 0
    endloop
  endfacet
  facet normal 0 0 -1
    outer loop
      vertex 12.5 -80 0
      vertex 3.71352 -50.8817 0
      vertex 4 -50 0
    endloop
  endfacet
  facet normal 0 0 -1
    outer loop
      vertex 2.96352 -68.5734 0
      vertex 3.71352 -50.8817 0
      vertex 3.71352 -69.1183 0
    endloop
  endfacet
  facet normal 0 0 -1
    outer loop
      vertex 2.96352 -68.5734 0
      vertex 2.96352 -51.4266 0
      vertex 3.71352 -50.8817 0
    endloop
  endfacet
  facet normal 0 0 -1
    outer loop
      vertex 2.03647 -68.5734 0
      vertex 2.96352 -51.4266 0
      vertex 2.96352 -68.5734 0
    endloop
  endfacet
  facet normal 0 0 -1
    outer loop
      vertex 2.03647 -68.5734 0
      vertex 2.03647 -51.4266 0
      vertex 2.96352 -51.4266 0
    endloop
  endfacet
  facet normal 0 0 -1
    outer loop
      vertex 1.28647 -69.1183 0
      vertex 2.03647 -51.4266 0
      vertex 2.03647 -68.5734 0
    endloop
  endfacet
  facet normal 0 0 -1
    outer loop
      vertex 1.28647 -69.1183 0
      vertex 1.28647 -50.8817 0
      vertex 2.03647 -51.4266 0
    endloop
  endfacet
  facet normal 0 0 -1
    outer loop
      vertex -7.5 -80 0
      vertex 1.28647 -69.1183 0
      vertex 1 -70 0
    endloop
  endfacet
  facet normal -0 0 -1
    outer loop
      vertex 1.28647 -69.1183 0
      vertex -7.5 -80 0
      vertex 1.28647 -50.8817 0
    endloop
  endfacet
  facet normal 0 0 -1
    outer loop
      vertex 3.71352 -69.1183 0
      vertex 12.5 -80 0
      vertex 4 -70 0
    endloop
  endfacet
  facet normal 0 0 -1
    outer loop
      vertex 12.5 -80 0
      vertex 3.71352 -70.8817 0
      vertex 4 -70 0
    endloop
  endfacet
  facet normal 0 0 -1
    outer loop
      vertex 12.5 -80 0
      vertex 2.96352 -71.4266 0
      vertex 3.71352 -70.8817 0
    endloop
  endfacet
  facet normal 0 0 -1
    outer loop
      vertex 12.5 -80 0
      vertex 2.03647 -71.4266 0
      vertex 2.96352 -71.4266 0
    endloop
  endfacet
  facet normal 0 0 -1
    outer loop
      vertex -7.5 -80 0
      vertex 2.03647 -71.4266 0
      vertex 12.5 -80 0
    endloop
  endfacet
  facet normal -0 0 -1
    outer loop
      vertex 1.28647 -50.8817 0
      vertex -7.5 -80 0
      vertex 1 -50 0
    endloop
  endfacet
  facet normal -0 0 -1
    outer loop
      vertex 1 -50 0
      vertex -7.5 -80 0
      vertex 1 -30 0
    endloop
  endfacet
  facet normal -0 0 -1
    outer loop
      vertex 1 -30 0
      vertex -7.5 -80 0
      vertex 1 -10 0
    endloop
  endfacet
  facet normal -0 0 -1
    outer loop
      vertex 1 -10 0
      vertex -7.5 -80 0
      vertex 1 10 0
    endloop
  endfacet
  facet normal 0 0 -1
    outer loop
      vertex -7.5 80 0
      vertex 1 10 0
      vertex -7.5 -80 0
    endloop
  endfacet
  facet normal 0 0 -1
    outer loop
      vertex 1 10 0
      vertex -7.5 80 0
      vertex 1 30 0
    endloop
  endfacet
  facet normal 0 0 -1
    outer loop
      vertex 1 30 0
      vertex -7.5 80 0
      vertex 1 50 0
    endloop
  endfacet
  facet normal -0 0 -1
    outer loop
      vertex 1.28647 -70.8817 0
      vertex -7.5 -80 0
      vertex 1 -70 0
    endloop
  endfacet
  facet normal -0 0 -1
    outer loop
      vertex 2.03647 -71.4266 0
      vertex -7.5 -80 0
      vertex 1.28647 -70.8817 0
    endloop
  endfacet
  facet normal 0 0 -1
    outer loop
      vertex 4 -30 0
      vertex 12.5 -80 0
      vertex 4 -50 0
    endloop
  endfacet
  facet normal 0 0 -1
    outer loop
      vertex 4 -10 0
      vertex 12.5 -80 0
      vertex 4 -30 0
    endloop
  endfacet
  facet normal 0 0 -1
    outer loop
      vertex 12.5 -80 0
      vertex 4 -10 0
      vertex 12.5 80 0
    endloop
  endfacet
  facet normal 0 0 -1
    outer loop
      vertex 4 10 0
      vertex 12.5 80 0
      vertex 4 -10 0
    endloop
  endfacet
  facet normal 0 0 -1
    outer loop
      vertex 4 30 0
      vertex 12.5 80 0
      vertex 4 10 0
    endloop
  endfacet
  facet normal 0 0 -1
    outer loop
      vertex 4 50 0
      vertex 12.5 80 0
      vertex 4 30 0
    endloop
  endfacet
  facet normal 0 0 -1
    outer loop
      vertex 3.71352 50.8817 0
      vertex 12.5 80 0
      vertex 4 50 0
    endloop
  endfacet
  facet normal 0 0 -1
    outer loop
      vertex 3.71352 70.8817 0
      vertex 12.5 80 0
      vertex 4 70 0
    endloop
  endfacet
  facet normal 0 0 -1
    outer loop
      vertex 2.96352 71.4266 0
      vertex 12.5 80 0
      vertex 3.71352 70.8817 0
    endloop
  endfacet
  facet normal 0 0 -1
    outer loop
      vertex 2.03647 71.4266 0
      vertex 12.5 80 0
      vertex 2.96352 71.4266 0
    endloop
  endfacet
  facet normal 0 0 -1
    outer loop
      vertex -7.5 80 0
      vertex 2.03647 71.4266 0
      vertex 1.28647 70.8817 0
    endloop
  endfacet
  facet normal 0 0 -1
    outer loop
      vertex 2.03647 71.4266 0
      vertex -7.5 80 0
      vertex 12.5 80 0
    endloop
  endfacet
  facet normal 0 0 -1
    outer loop
      vertex 1 70 0
      vertex -7.5 80 0
      vertex 1.28647 70.8817 0
    endloop
  endfacet
  facet normal 0 0 -1
    outer loop
      vertex 1.28647 69.1183 0
      vertex -7.5 80 0
      vertex 1 70 0
    endloop
  endfacet
  facet normal 0 -1 0
    outer loop
      vertex -0.369808 -80 12.6766
      vertex -7.5 -80 15
      vertex -1.29686 -80 12.6766
    endloop
  endfacet
  facet normal 0 -1 0
    outer loop
      vertex -7.5 -80 15
      vertex -2.04686 -80 12.1317
      vertex -1.29686 -80 12.6766
    endloop
  endfacet
  facet normal 0 -1 0
    outer loop
      vertex -7.5 -80 15
      vertex -2.33333 -80 11.25
      vertex -2.04686 -80 12.1317
    endloop
  endfacet
  facet normal 0 -1 0
    outer loop
      vertex -7.5 -80 15
      vertex -2.04686 -80 10.3683
      vertex -2.33333 -80 11.25
    endloop
  endfacet
  facet normal 0 -1 -0
    outer loop
      vertex -1.29686 -80 9.82341
      vertex -7.5 -80 0
      vertex -0.369808 -80 9.82341
    endloop
  endfacet
  facet normal 0 -1 -0
    outer loop
      vertex -2.04686 -80 10.3683
      vertex -7.5 -80 0
      vertex -1.29686 -80 9.82341
    endloop
  endfacet
  facet normal 0 -1 0
    outer loop
      vertex -7.5 -80 0
      vertex -2.04686 -80 10.3683
      vertex -7.5 -80 15
    endloop
  endfacet
  facet normal 0 -1 0
    outer loop
      vertex -7.5 -80 15
      vertex -0.369808 -80 12.6766
      vertex 12.5 -80 15
    endloop
  endfacet
  facet normal 0 -1 0
    outer loop
      vertex 0.380192 -80 12.1317
      vertex 12.5 -80 15
      vertex -0.369808 -80 12.6766
    endloop
  endfacet
  facet normal 0 -1 0
    outer loop
      vertex 0.666666 -80 11.25
      vertex 12.5 -80 15
      vertex 0.380192 -80 12.1317
    endloop
  endfacet
  facet normal 0 -1 0
    outer loop
      vertex 0.380192 -80 10.3683
      vertex 12.5 -80 15
      vertex 0.666666 -80 11.25
    endloop
  endfacet
  facet normal 0 -1 0
    outer loop
      vertex 12.5 -80 0
      vertex 0.380192 -80 10.3683
      vertex -0.369808 -80 9.82341
    endloop
  endfacet
  facet normal 0 -1 0
    outer loop
      vertex 12.5 -80 0
      vertex -0.369808 -80 9.82341
      vertex -7.5 -80 0
    endloop
  endfacet
  facet normal 0 -1 0
    outer loop
      vertex 0.380192 -80 10.3683
      vertex 12.5 -80 0
      vertex 12.5 -80 15
    endloop
  endfacet
  facet normal 1 -0 0
    outer loop
      vertex -4.5 -77 15
      vertex -4.5 77 3
      vertex -4.5 77 15
    endloop
  endfacet
  facet normal 1 0 0
    outer loop
      vertex -4.5 77 3
      vertex -4.5 -77 15
      vertex -4.5 -77 3
    endloop
  endfacet
  facet normal -1 0 0
    outer loop
      vertex 9.5 -77 3
      vertex 9.5 77 15
      vertex 9.5 77 3
    endloop
  endfacet
  facet normal -1 -0 0
    outer loop
      vertex 9.5 77 15
      vertex 9.5 -77 3
      vertex 9.5 -77 15
    endloop
  endfacet
  facet normal 0 -1 0
    outer loop
      vertex -4.5 77 3
      vertex 9.5 77 15
      vertex -4.5 77 15
    endloop
  endfacet
  facet normal 0 -1 -0
    outer loop
      vertex 9.5 77 15
      vertex -4.5 77 3
      vertex 9.5 77 3
    endloop
  endfacet
  facet normal -0 0 1
    outer loop
      vertex 3.71352 -69.1183 3
      vertex 9.5 -77 3
      vertex 3.71352 -50.8817 3
    endloop
  endfacet
  facet normal 0 0 1
    outer loop
      vertex 9.5 -77 3
      vertex 3.71352 -69.1183 3
      vertex 4 -70 3
    endloop
  endfacet
  facet normal -0 0 1
    outer loop
      vertex 2.96352 -51.4266 3
      vertex 3.71352 -69.1183 3
      vertex 3.71352 -50.8817 3
    endloop
  endfacet
  facet normal 0 0 1
    outer loop
      vertex 2.96352 -51.4266 3
      vertex 2.96352 -68.5734 3
      vertex 3.71352 -69.1183 3
    endloop
  endfacet
  facet normal -0 0 1
    outer loop
      vertex 2.03647 -51.4266 3
      vertex 2.96352 -68.5734 3
      vertex 2.96352 -51.4266 3
    endloop
  endfacet
  facet normal 0 0 1
    outer loop
      vertex 2.03647 -51.4266 3
      vertex 2.03647 -68.5734 3
      vertex 2.96352 -68.5734 3
    endloop
  endfacet
  facet normal 0 0 1
    outer loop
      vertex 1.28647 -50.8817 3
      vertex 2.03647 -68.5734 3
      vertex 2.03647 -51.4266 3
    endloop
  endfacet
  facet normal 0 0 1
    outer loop
      vertex 1.28647 -50.8817 3
      vertex 1.28647 -69.1183 3
      vertex 2.03647 -68.5734 3
    endloop
  endfacet
  facet normal 0 0 1
    outer loop
      vertex -4.5 -77 3
      vertex 1.28647 -50.8817 3
      vertex 1 -50 3
    endloop
  endfacet
  facet normal 0 0 1
    outer loop
      vertex 1.28647 -50.8817 3
      vertex -4.5 -77 3
      vertex 1.28647 -69.1183 3
    endloop
  endfacet
  facet normal -0 0 1
    outer loop
      vertex 3.71352 -30.8817 3
      vertex 4 -50 3
      vertex 4 -30 3
    endloop
  endfacet
  facet normal 0 0 1
    outer loop
      vertex 3.71352 -30.8817 3
      vertex 3.71352 -49.1183 3
      vertex 4 -50 3
    endloop
  endfacet
  facet normal -0 0 1
    outer loop
      vertex 2.96352 -31.4266 3
      vertex 3.71352 -49.1183 3
      vertex 3.71352 -30.8817 3
    endloop
  endfacet
  facet normal 0 0 1
    outer loop
      vertex 2.96352 -31.4266 3
      vertex 2.96352 -48.5734 3
      vertex 3.71352 -49.1183 3
    endloop
  endfacet
  facet normal -0 0 1
    outer loop
      vertex 2.03647 -31.4266 3
      vertex 2.96352 -48.5734 3
      vertex 2.96352 -31.4266 3
    endloop
  endfacet
  facet normal 0 0 1
    outer loop
      vertex 2.03647 -31.4266 3
      vertex 2.03647 -48.5734 3
      vertex 2.96352 -48.5734 3
    endloop
  endfacet
  facet normal 0 0 1
    outer loop
      vertex 1.28647 -30.8817 3
      vertex 2.03647 -48.5734 3
      vertex 2.03647 -31.4266 3
    endloop
  endfacet
  facet normal 0 0 1
    outer loop
      vertex 1.28647 -30.8817 3
      vertex 1.28647 -49.1183 3
      vertex 2.03647 -48.5734 3
    endloop
  endfacet
  facet normal 0 0 1
    outer loop
      vertex 1 -30 3
      vertex 1.28647 -49.1183 3
      vertex 1.28647 -30.8817 3
    endloop
  endfacet
  facet normal 0 0 1
    outer loop
      vertex 1.28647 -49.1183 3
      vertex 1 -30 3
      vertex 1 -50 3
    endloop
  endfacet
  facet normal -0 0 1
    outer loop
      vertex 3.71352 -10.8817 3
      vertex 4 -30 3
      vertex 4 -10 3
    endloop
  endfacet
  facet normal 0 0 1
    outer loop
      vertex 3.71352 -10.8817 3
      vertex 3.71352 -29.1183 3
      vertex 4 -30 3
    endloop
  endfacet
  facet normal -0 0 1
    outer loop
      vertex 2.96352 -11.4266 3
      vertex 3.71352 -29.1183 3
      vertex 3.71352 -10.8817 3
    endloop
  endfacet
  facet normal 0 0 1
    outer loop
      vertex 2.96352 -11.4266 3
      vertex 2.96352 -28.5734 3
      vertex 3.71352 -29.1183 3
    endloop
  endfacet
  facet normal -0 0 1
    outer loop
      vertex 2.03647 -11.4266 3
      vertex 2.96352 -28.5734 3
      vertex 2.96352 -11.4266 3
    endloop
  endfacet
  facet normal 0 0 1
    outer loop
      vertex 2.03647 -11.4266 3
      vertex 2.03647 -28.5734 3
      vertex 2.96352 -28.5734 3
    endloop
  endfacet
  facet normal 0 0 1
    outer loop
      vertex 1.28647 -10.8817 3
      vertex 2.03647 -28.5734 3
      vertex 2.03647 -11.4266 3
    endloop
  endfacet
  facet normal 0 0 1
    outer loop
      vertex 1.28647 -10.8817 3
      vertex 1.28647 -29.1183 3
      vertex 2.03647 -28.5734 3
    endloop
  endfacet
  facet normal 0 0 1
    outer loop
      vertex 1 -10 3
      vertex 1.28647 -29.1183 3
      vertex 1.28647 -10.8817 3
    endloop
  endfacet
  facet normal 0 0 1
    outer loop
      vertex 1.28647 -29.1183 3
      vertex 1 -10 3
      vertex 1 -30 3
    endloop
  endfacet
  facet normal -0 0 1
    outer loop
      vertex 3.71352 9.11832 3
      vertex 4 -10 3
      vertex 4 10 3
    endloop
  endfacet
  facet normal 0 0 1
    outer loop
      vertex 3.71352 9.11832 3
      vertex 3.71352 -9.11832 3
      vertex 4 -10 3
    endloop
  endfacet
  facet normal -0 0 1
    outer loop
      vertex 2.96352 8.57341 3
      vertex 3.71352 -9.11832 3
      vertex 3.71352 9.11832 3
    endloop
  endfacet
  facet normal 0 0 1
    outer loop
      vertex 2.96352 8.57341 3
      vertex 2.96352 -8.57342 3
      vertex 3.71352 -9.11832 3
    endloop
  endfacet
  facet normal -0 0 1
    outer loop
      vertex 2.03647 8.57341 3
      vertex 2.96352 -8.57342 3
      vertex 2.96352 8.57341 3
    endloop
  endfacet
  facet normal 0 0 1
    outer loop
      vertex 2.03647 8.57341 3
      vertex 2.03647 -8.57342 3
      vertex 2.96352 -8.57342 3
    endloop
  endfacet
  facet normal 0 0 1
    outer loop
      vertex 1.28647 9.11832 3
      vertex 2.03647 -8.57342 3
      vertex 2.03647 8.57341 3
    endloop
  endfacet
  facet normal 0 0 1
    outer loop
      vertex 1.28647 9.11832 3
      vertex 1.28647 -9.11832 3
      vertex 2.03647 -8.57342 3
    endloop
  endfacet
  facet normal 0 0 1
    outer loop
      vertex 1 10 3
      vertex 1.28647 -9.11832 3
      vertex 1.28647 9.11832 3
    endloop
  endfacet
  facet normal 0 0 1
    outer loop
      vertex 1.28647 -9.11832 3
      vertex 1 10 3
      vertex 1 -10 3
    endloop
  endfacet
  facet normal -0 0 1
    outer loop
      vertex 3.71352 29.1183 3
      vertex 4 10 3
      vertex 4 30 3
    endloop
  endfacet
  facet normal 0 0 1
    outer loop
      vertex 3.71352 29.1183 3
      vertex 3.71352 10.8817 3
      vertex 4 10 3
    endloop
  endfacet
  facet normal -0 0 1
    outer loop
      vertex 2.96352 28.5734 3
      vertex 3.71352 10.8817 3
      vertex 3.71352 29.1183 3
    endloop
  endfacet
  facet normal 0 0 1
    outer loop
      vertex 2.96352 28.5734 3
      vertex 2.96352 11.4266 3
      vertex 3.71352 10.8817 3
    endloop
  endfacet
  facet normal -0 0 1
    outer loop
      vertex 2.03647 28.5734 3
      vertex 2.96352 11.4266 3
      vertex 2.96352 28.5734 3
    endloop
  endfacet
  facet normal 0 0 1
    outer loop
      vertex 2.03647 28.5734 3
      vertex 2.03647 11.4266 3
      vertex 2.96352 11.4266 3
    endloop
  endfacet
  facet normal 0 0 1
    outer loop
      vertex 1.28647 29.1183 3
      vertex 2.03647 11.4266 3
      vertex 2.03647 28.5734 3
    endloop
  endfacet
  facet normal 0 0 1
    outer loop
      vertex 1.28647 29.1183 3
      vertex 1.28647 10.8817 3
      vertex 2.03647 11.4266 3
    endloop
  endfacet
  facet normal 0 0 1
    outer loop
      vertex 1 30 3
      vertex 1.28647 10.8817 3
      vertex 1.28647 29.1183 3
    endloop
  endfacet
  facet normal 0 0 1
    outer loop
      vertex 1.28647 10.8817 3
      vertex 1 30 3
      vertex 1 10 3
    endloop
  endfacet
  facet normal -0 0 1
    outer loop
      vertex 3.71352 49.1183 3
      vertex 4 30 3
      vertex 4 50 3
    endloop
  endfacet
  facet normal 0 0 1
    outer loop
      vertex 3.71352 49.1183 3
      vertex 3.71352 30.8817 3
      vertex 4 30 3
    endloop
  endfacet
  facet normal -0 0 1
    outer loop
      vertex 2.96352 48.5734 3
      vertex 3.71352 30.8817 3
      vertex 3.71352 49.1183 3
    endloop
  endfacet
  facet normal 0 0 1
    outer loop
      vertex 2.96352 48.5734 3
      vertex 2.96352 31.4266 3
      vertex 3.71352 30.8817 3
    endloop
  endfacet
  facet normal -0 0 1
    outer loop
      vertex 2.03647 48.5734 3
      vertex 2.96352 31.4266 3
      vertex 2.96352 48.5734 3
    endloop
  endfacet
  facet normal 0 0 1
    outer loop
      vertex 2.03647 48.5734 3
      vertex 2.03647 31.4266 3
      vertex 2.96352 31.4266 3
    endloop
  endfacet
  facet normal 0 0 1
    outer loop
      vertex 1.28647 49.1183 3
      vertex 2.03647 31.4266 3
      vertex 2.03647 48.5734 3
    endloop
  endfacet
  facet normal 0 0 1
    outer loop
      vertex 1.28647 49.1183 3
      vertex 1.28647 30.8817 3
      vertex 2.03647 31.4266 3
    endloop
  endfacet
  facet normal 0 0 1
    outer loop
      vertex 1 50 3
      vertex 1.28647 30.8817 3
      vertex 1.28647 49.1183 3
    endloop
  endfacet
  facet normal 0 0 1
    outer loop
      vertex 1.28647 30.8817 3
      vertex 1 50 3
      vertex 1 30 3
    endloop
  endfacet
  facet normal 0 0 1
    outer loop
      vertex 3.71352 50.8817 3
      vertex 9.5 77 3
      vertex 3.71352 69.1183 3
    endloop
  endfacet
  facet normal 0 0 1
    outer loop
      vertex 9.5 77 3
      vertex 3.71352 50.8817 3
      vertex 4 50 3
    endloop
  endfacet
  facet normal -0 0 1
    outer loop
      vertex 2.96352 68.5734 3
      vertex 3.71352 50.8817 3
      vertex 3.71352 69.1183 3
    endloop
  endfacet
  facet normal 0 0 1
    outer loop
      vertex 2.96352 68.5734 3
      vertex 2.96352 51.4266 3
      vertex 3.71352 50.8817 3
    endloop
  endfacet
  facet normal -0 0 1
    outer loop
      vertex 2.03647 68.5734 3
      vertex 2.96352 51.4266 3
      vertex 2.96352 68.5734 3
    endloop
  endfacet
  facet normal 0 0 1
    outer loop
      vertex 2.03647 68.5734 3
      vertex 2.03647 51.4266 3
      vertex 2.96352 51.4266 3
    endloop
  endfacet
  facet normal 0 0 1
    outer loop
      vertex 1.28647 69.1183 3
      vertex 2.03647 51.4266 3
      vertex 2.03647 68.5734 3
    endloop
  endfacet
  facet normal 0 0 1
    outer loop
      vertex 1.28647 69.1183 3
      vertex 1.28647 50.8817 3
      vertex 2.03647 51.4266 3
    endloop
  endfacet
  facet normal 0 0 1
    outer loop
      vertex -4.5 77 3
      vertex 1.28647 69.1183 3
      vertex 1 70 3
    endloop
  endfacet
  facet normal 0 0 1
    outer loop
      vertex 1.28647 69.1183 3
      vertex -4.5 77 3
      vertex 1.28647 50.8817 3
    endloop
  endfacet
  facet normal 0 0 1
    outer loop
      vertex 3.71352 69.1183 3
      vertex 9.5 77 3
      vertex 4 70 3
    endloop
  endfacet
  facet normal 0 0 1
    outer loop
      vertex 9.5 77 3
      vertex 3.71352 70.8817 3
      vertex 4 70 3
    endloop
  endfacet
  facet normal 0 0 1
    outer loop
      vertex 9.5 77 3
      vertex 2.96352 71.4266 3
      vertex 3.71352 70.8817 3
    endloop
  endfacet
  facet normal 0 0 1
    outer loop
      vertex 9.5 77 3
      vertex 2.03647 71.4266 3
      vertex 2.96352 71.4266 3
    endloop
  endfacet
  facet normal -0 0 1
    outer loop
      vertex -4.5 77 3
      vertex 2.03647 71.4266 3
      vertex 9.5 77 3
    endloop
  endfacet
  facet normal 0 0 1
    outer loop
      vertex 1.28647 50.8817 3
      vertex -4.5 77 3
      vertex 1 50 3
    endloop
  endfacet
  facet normal 0 0 1
    outer loop
      vertex 1 50 3
      vertex -4.5 77 3
      vertex 1 30 3
    endloop
  endfacet
  facet normal 0 0 1
    outer loop
      vertex 1 30 3
      vertex -4.5 77 3
      vertex 1 10 3
    endloop
  endfacet
  facet normal 0 0 1
    outer loop
      vertex 1 10 3
      vertex -4.5 77 3
      vertex 1 -10 3
    endloop
  endfacet
  facet normal 0 0 1
    outer loop
      vertex -4.5 -77 3
      vertex 1 -10 3
      vertex -4.5 77 3
    endloop
  endfacet
  facet normal 0 0 1
    outer loop
      vertex 1 -10 3
      vertex -4.5 -77 3
      vertex 1 -30 3
    endloop
  endfacet
  facet normal 0 0 1
    outer loop
      vertex 1 -30 3
      vertex -4.5 -77 3
      vertex 1 -50 3
    endloop
  endfacet
  facet normal 0 0 1
    outer loop
      vertex 1.28647 70.8817 3
      vertex -4.5 77 3
      vertex 1 70 3
    endloop
  endfacet
  facet normal 0 0 1
    outer loop
      vertex 2.03647 71.4266 3
      vertex -4.5 77 3
      vertex 1.28647 70.8817 3
    endloop
  endfacet
  facet normal 0 0 1
    outer loop
      vertex 4 30 3
      vertex 9.5 77 3
      vertex 4 50 3
    endloop
  endfacet
  facet normal 0 0 1
    outer loop
      vertex 4 10 3
      vertex 9.5 77 3
      vertex 4 30 3
    endloop
  endfacet
  facet normal 0 0 1
    outer loop
      vertex 9.5 77 3
      vertex 4 10 3
      vertex 9.5 -77 3
    endloop
  endfacet
  facet normal -0 0 1
    outer loop
      vertex 4 -10 3
      vertex 9.5 -77 3
      vertex 4 10 3
    endloop
  endfacet
  facet normal -0 0 1
    outer loop
      vertex 4 -30 3
      vertex 9.5 -77 3
      vertex 4 -10 3
    endloop
  endfacet
  facet normal -0 0 1
    outer loop
      vertex 4 -50 3
      vertex 9.5 -77 3
      vertex 4 -30 3
    endloop
  endfacet
  facet normal -0 0 1
    outer loop
      vertex 3.71352 -50.8817 3
      vertex 9.5 -77 3
      vertex 4 -50 3
    endloop
  endfacet
  facet normal -0 0 1
    outer loop
      vertex 3.71352 -70.8817 3
      vertex 9.5 -77 3
      vertex 4 -70 3
    endloop
  endfacet
  facet normal -0 0 1
    outer loop
      vertex 2.96352 -71.4266 3
      vertex 9.5 -77 3
      vertex 3.71352 -70.8817 3
    endloop
  endfacet
  facet normal -0 0 1
    outer loop
      vertex 2.03647 -71.4266 3
      vertex 9.5 -77 3
      vertex 2.96352 -71.4266 3
    endloop
  endfacet
  facet normal 0 0 1
    outer loop
      vertex -4.5 -77 3
      vertex 2.03647 -71.4266 3
      vertex 1.28647 -70.8817 3
    endloop
  endfacet
  facet normal 0 0 1
    outer loop
      vertex 2.03647 -71.4266 3
      vertex -4.5 -77 3
      vertex 9.5 -77 3
    endloop
  endfacet
  facet normal 0 0 1
    outer loop
      vertex 1 -70 3
      vertex -4.5 -77 3
      vertex 1.28647 -70.8817 3
    endloop
  endfacet
  facet normal 0 0 1
    outer loop
      vertex 1.28647 -69.1183 3
      vertex -4.5 -77 3
      vertex 1 -70 3
    endloop
  endfacet
  facet normal 0 1 0
    outer loop
      vertex 9.5 -77 15
      vertex -0.369808 -77 12.6766
      vertex -4.5 -77 15
    endloop
  endfacet
  facet normal 0 1 0
    outer loop
      vertex 9.5 -77 15
      vertex 0.380192 -77 12.1317
      vertex -0.369808 -77 12.6766
    endloop
  endfacet
  facet normal 0 1 0
    outer loop
      vertex 9.5 -77 15
      vertex 0.666666 -77 11.25
      vertex 0.380192 -77 12.1317
    endloop
  endfacet
  facet normal 0 1 -0
    outer loop
      vertex 9.5 -77 3
      vertex 0.666666 -77 11.25
      vertex 9.5 -77 15
    endloop
  endfacet
  facet normal 0 1 0
    outer loop
      vertex 0.666666 -77 11.25
      vertex 9.5 -77 3
      vertex 0.380192 -77 10.3683
    endloop
  endfacet
  facet normal 0 1 0
    outer loop
      vertex -4.5 -77 3
      vertex -0.369808 -77 9.82341
      vertex 9.5 -77 3
    endloop
  endfacet
  facet normal 0 1 0
    outer loop
      vertex 0.380192 -77 10.3683
      vertex 9.5 -77 3
      vertex -0.369808 -77 9.82341
    endloop
  endfacet
  facet normal 0 1 -0
    outer loop
      vertex -1.29686 -77 12.6766
      vertex -4.5 -77 15
      vertex -0.369808 -77 12.6766
    endloop
  endfacet
  facet normal 0 1 -0
    outer loop
      vertex -2.04686 -77 12.1317
      vertex -4.5 -77 15
      vertex -1.29686 -77 12.6766
    endloop
  endfacet
  facet normal 0 1 -0
    outer loop
      vertex -2.33333 -77 11.25
      vertex -4.5 -77 15
      vertex -2.04686 -77 12.1317
    endloop
  endfacet
  facet normal 0 1 0
    outer loop
      vertex -4.5 -77 3
      vertex -2.33333 -77 11.25
      vertex -2.04686 -77 10.3683
    endloop
  endfacet
  facet normal 0 1 0
    outer loop
      vertex -2.33333 -77 11.25
      vertex -4.5 -77 3
      vertex -4.5 -77 15
    endloop
  endfacet
  facet normal 0 1 0
    outer loop
      vertex -1.29686 -77 9.82341
      vertex -4.5 -77 3
      vertex -2.04686 -77 10.3683
    endloop
  endfacet
  facet normal 0 1 0
    outer loop
      vertex -0.369808 -77 9.82341
      vertex -4.5 -77 3
      vertex -1.29686 -77 9.82341
    endloop
  endfacet
  facet normal -0.951056 -0.309018 0
    outer loop
      vertex 4 -50 0
      vertex 3.71352 -49.1183 3
      vertex 3.71352 -49.1183 0
    endloop
  endfacet
  facet normal -0.951056 -0.309018 0
    outer loop
      vertex 3.71352 -49.1183 3
      vertex 4 -50 0
      vertex 4 -50 3
    endloop
  endfacet
  facet normal -0.587785 0.809017 0
    outer loop
      vertex 3.71352 -50.8817 0
      vertex 2.96352 -51.4266 3
      vertex 3.71352 -50.8817 3
    endloop
  endfacet
  facet normal -0.587785 0.809017 0
    outer loop
      vertex 2.96352 -51.4266 3
      vertex 3.71352 -50.8817 0
      vertex 2.96352 -51.4266 0
    endloop
  endfacet
  facet normal 0.587785 -0.809017 0
    outer loop
      vertex 1.28647 -49.1183 0
      vertex 2.03647 -48.5734 3
      vertex 1.28647 -49.1183 3
    endloop
  endfacet
  facet normal 0.587785 -0.809017 0
    outer loop
      vertex 2.03647 -48.5734 3
      vertex 1.28647 -49.1183 0
      vertex 2.03647 -48.5734 0
    endloop
  endfacet
  facet normal -0.587785 -0.809017 0
    outer loop
      vertex 2.96352 -48.5734 0
      vertex 3.71352 -49.1183 3
      vertex 2.96352 -48.5734 3
    endloop
  endfacet
  facet normal -0.587785 -0.809017 -0
    outer loop
      vertex 3.71352 -49.1183 3
      vertex 2.96352 -48.5734 0
      vertex 3.71352 -49.1183 0
    endloop
  endfacet
  facet normal 0.951056 -0.309017 0
    outer loop
      vertex 1 -50 3
      vertex 1.28647 -49.1183 0
      vertex 1.28647 -49.1183 3
    endloop
  endfacet
  facet normal 0.951056 -0.309017 0
    outer loop
      vertex 1.28647 -49.1183 0
      vertex 1 -50 3
      vertex 1 -50 0
    endloop
  endfacet
  facet normal -0.951056 0.309017 0
    outer loop
      vertex 3.71352 -50.8817 0
      vertex 4 -50 3
      vertex 4 -50 0
    endloop
  endfacet
  facet normal -0.951056 0.309017 0
    outer loop
      vertex 4 -50 3
      vertex 3.71352 -50.8817 0
      vertex 3.71352 -50.8817 3
    endloop
  endfacet
  facet normal 0 -1 0
    outer loop
      vertex 2.03647 -48.5734 0
      vertex 2.96352 -48.5734 3
      vertex 2.03647 -48.5734 3
    endloop
  endfacet
  facet normal 0 -1 -0
    outer loop
      vertex 2.96352 -48.5734 3
      vertex 2.03647 -48.5734 0
      vertex 2.96352 -48.5734 0
    endloop
  endfacet
  facet normal 0.951057 0.309016 0
    outer loop
      vertex 1.28647 -50.8817 3
      vertex 1 -50 0
      vertex 1 -50 3
    endloop
  endfacet
  facet normal 0.951057 0.309016 0
    outer loop
      vertex 1 -50 0
      vertex 1.28647 -50.8817 3
      vertex 1.28647 -50.8817 0
    endloop
  endfacet
  facet normal 0 1 -0
    outer loop
      vertex 2.96352 -51.4266 0
      vertex 2.03647 -51.4266 3
      vertex 2.96352 -51.4266 3
    endloop
  endfacet
  facet normal 0 1 0
    outer loop
      vertex 2.03647 -51.4266 3
      vertex 2.96352 -51.4266 0
      vertex 2.03647 -51.4266 0
    endloop
  endfacet
  facet normal 0.587785 0.809017 -0
    outer loop
      vertex 2.03647 -51.4266 0
      vertex 1.28647 -50.8817 3
      vertex 2.03647 -51.4266 3
    endloop
  endfacet
  facet normal 0.587785 0.809017 0
    outer loop
      vertex 1.28647 -50.8817 3
      vertex 2.03647 -51.4266 0
      vertex 1.28647 -50.8817 0
    endloop
  endfacet
  facet normal -0.951056 -0.309018 0
    outer loop
      vertex 4 -30 0
      vertex 3.71352 -29.1183 3
      vertex 3.71352 -29.1183 0
    endloop
  endfacet
  facet normal -0.951056 -0.309018 0
    outer loop
      vertex 3.71352 -29.1183 3
      vertex 4 -30 0
      vertex 4 -30 3
    endloop
  endfacet
  facet normal -0.587785 0.809017 0
    outer loop
      vertex 3.71352 -30.8817 0
      vertex 2.96352 -31.4266 3
      vertex 3.71352 -30.8817 3
    endloop
  endfacet
  facet normal -0.587785 0.809017 0
    outer loop
      vertex 2.96352 -31.4266 3
      vertex 3.71352 -30.8817 0
      vertex 2.96352 -31.4266 0
    endloop
  endfacet
  facet normal 0.587785 -0.809017 0
    outer loop
      vertex 1.28647 -29.1183 0
      vertex 2.03647 -28.5734 3
      vertex 1.28647 -29.1183 3
    endloop
  endfacet
  facet normal 0.587785 -0.809017 0
    outer loop
      vertex 2.03647 -28.5734 3
      vertex 1.28647 -29.1183 0
      vertex 2.03647 -28.5734 0
    endloop
  endfacet
  facet normal -0.587785 -0.809017 0
    outer loop
      vertex 2.96352 -28.5734 0
      vertex 3.71352 -29.1183 3
      vertex 2.96352 -28.5734 3
    endloop
  endfacet
  facet normal -0.587785 -0.809017 -0
    outer loop
      vertex 3.71352 -29.1183 3
      vertex 2.96352 -28.5734 0
      vertex 3.71352 -29.1183 0
    endloop
  endfacet
  facet normal 0.951057 -0.309017 0
    outer loop
      vertex 1 -30 3
      vertex 1.28647 -29.1183 0
      vertex 1.28647 -29.1183 3
    endloop
  endfacet
  facet normal 0.951057 -0.309017 0
    outer loop
      vertex 1.28647 -29.1183 0
      vertex 1 -30 3
      vertex 1 -30 0
    endloop
  endfacet
  facet normal 0 -1 0
    outer loop
      vertex 2.03647 -28.5734 0
      vertex 2.96352 -28.5734 3
      vertex 2.03647 -28.5734 3
    endloop
  endfacet
  facet normal 0 -1 -0
    outer loop
      vertex 2.96352 -28.5734 3
      vertex 2.03647 -28.5734 0
      vertex 2.96352 -28.5734 0
    endloop
  endfacet
  facet normal 0.951057 0.309016 0
    outer loop
      vertex 1.28647 -30.8817 3
      vertex 1 -30 0
      vertex 1 -30 3
    endloop
  endfacet
  facet normal 0.951057 0.309016 0
    outer loop
      vertex 1 -30 0
      vertex 1.28647 -30.8817 3
      vertex 1.28647 -30.8817 0
    endloop
  endfacet
  facet normal 0.587785 0.809017 -0
    outer loop
      vertex 2.03647 -31.4266 0
      vertex 1.28647 -30.8817 3
      vertex 2.03647 -31.4266 3
    endloop
  endfacet
  facet normal 0.587785 0.809017 0
    outer loop
      vertex 1.28647 -30.8817 3
      vertex 2.03647 -31.4266 0
      vertex 1.28647 -30.8817 0
    endloop
  endfacet
  facet normal -0.951056 0.309017 0
    outer loop
      vertex 3.71352 -30.8817 0
      vertex 4 -30 3
      vertex 4 -30 0
    endloop
  endfacet
  facet normal -0.951056 0.309017 0
    outer loop
      vertex 4 -30 3
      vertex 3.71352 -30.8817 0
      vertex 3.71352 -30.8817 3
    endloop
  endfacet
  facet normal 0 1 -0
    outer loop
      vertex 2.96352 -31.4266 0
      vertex 2.03647 -31.4266 3
      vertex 2.96352 -31.4266 3
    endloop
  endfacet
  facet normal 0 1 0
    outer loop
      vertex 2.03647 -31.4266 3
      vertex 2.96352 -31.4266 0
      vertex 2.03647 -31.4266 0
    endloop
  endfacet
  facet normal -0.951056 -0.309018 0
    outer loop
      vertex 4 -10 0
      vertex 3.71352 -9.11832 3
      vertex 3.71352 -9.11832 0
    endloop
  endfacet
  facet normal -0.951056 -0.309018 0
    outer loop
      vertex 3.71352 -9.11832 3
      vertex 4 -10 0
      vertex 4 -10 3
    endloop
  endfacet
  facet normal -0.587785 0.809017 0
    outer loop
      vertex 3.71352 -10.8817 0
      vertex 2.96352 -11.4266 3
      vertex 3.71352 -10.8817 3
    endloop
  endfacet
  facet normal -0.587785 0.809017 0
    outer loop
      vertex 2.96352 -11.4266 3
      vertex 3.71352 -10.8817 0
      vertex 2.96352 -11.4266 0
    endloop
  endfacet
  facet normal 0.587785 -0.809017 0
    outer loop
      vertex 1.28647 -9.11832 0
      vertex 2.03647 -8.57342 3
      vertex 1.28647 -9.11832 3
    endloop
  endfacet
  facet normal 0.587785 -0.809017 0
    outer loop
      vertex 2.03647 -8.57342 3
      vertex 1.28647 -9.11832 0
      vertex 2.03647 -8.57342 0
    endloop
  endfacet
  facet normal -0.587785 -0.809017 0
    outer loop
      vertex 2.96352 -8.57342 0
      vertex 3.71352 -9.11832 3
      vertex 2.96352 -8.57342 3
    endloop
  endfacet
  facet normal -0.587785 -0.809017 -0
    outer loop
      vertex 3.71352 -9.11832 3
      vertex 2.96352 -8.57342 0
      vertex 3.71352 -9.11832 0
    endloop
  endfacet
  facet normal 0.951057 -0.309017 0
    outer loop
      vertex 1 -10 3
      vertex 1.28647 -9.11832 0
      vertex 1.28647 -9.11832 3
    endloop
  endfacet
  facet normal 0.951057 -0.309017 0
    outer loop
      vertex 1.28647 -9.11832 0
      vertex 1 -10 3
      vertex 1 -10 0
    endloop
  endfacet
  facet normal -0.951056 0.309017 0
    outer loop
      vertex 3.71352 -10.8817 0
      vertex 4 -10 3
      vertex 4 -10 0
    endloop
  endfacet
  facet normal -0.951056 0.309017 0
    outer loop
      vertex 4 -10 3
      vertex 3.71352 -10.8817 0
      vertex 3.71352 -10.8817 3
    endloop
  endfacet
  facet normal 0 -1 0
    outer loop
      vertex 2.03647 -8.57342 0
      vertex 2.96352 -8.57342 3
      vertex 2.03647 -8.57342 3
    endloop
  endfacet
  facet normal 0 -1 -0
    outer loop
      vertex 2.96352 -8.57342 3
      vertex 2.03647 -8.57342 0
      vertex 2.96352 -8.57342 0
    endloop
  endfacet
  facet normal 0.951057 0.309016 0
    outer loop
      vertex 1.28647 -10.8817 3
      vertex 1 -10 0
      vertex 1 -10 3
    endloop
  endfacet
  facet normal 0.951057 0.309016 0
    outer loop
      vertex 1 -10 0
      vertex 1.28647 -10.8817 3
      vertex 1.28647 -10.8817 0
    endloop
  endfacet
  facet normal 0 1 -0
    outer loop
      vertex 2.96352 -11.4266 0
      vertex 2.03647 -11.4266 3
      vertex 2.96352 -11.4266 3
    endloop
  endfacet
  facet normal 0 1 0
    outer loop
      vertex 2.03647 -11.4266 3
      vertex 2.96352 -11.4266 0
      vertex 2.03647 -11.4266 0
    endloop
  endfacet
  facet normal 0.587785 0.809017 -0
    outer loop
      vertex 2.03647 -11.4266 0
      vertex 1.28647 -10.8817 3
      vertex 2.03647 -11.4266 3
    endloop
  endfacet
  facet normal 0.587785 0.809017 0
    outer loop
      vertex 1.28647 -10.8817 3
      vertex 2.03647 -11.4266 0
      vertex 1.28647 -10.8817 0
    endloop
  endfacet
  facet normal -0.951056 -0.309018 0
    outer loop
      vertex 4 10 0
      vertex 3.71352 10.8817 3
      vertex 3.71352 10.8817 0
    endloop
  endfacet
  facet normal -0.951056 -0.309018 0
    outer loop
      vertex 3.71352 10.8817 3
      vertex 4 10 0
      vertex 4 10 3
    endloop
  endfacet
  facet normal -0.587785 0.809017 0
    outer loop
      vertex 3.71352 9.11832 0
      vertex 2.96352 8.57341 3
      vertex 3.71352 9.11832 3
    endloop
  endfacet
  facet normal -0.587785 0.809017 0
    outer loop
      vertex 2.96352 8.57341 3
      vertex 3.71352 9.11832 0
      vertex 2.96352 8.57341 0
    endloop
  endfacet
  facet normal 0.587785 -0.809017 0
    outer loop
      vertex 1.28647 10.8817 0
      vertex 2.03647 11.4266 3
      vertex 1.28647 10.8817 3
    endloop
  endfacet
  facet normal 0.587785 -0.809017 0
    outer loop
      vertex 2.03647 11.4266 3
      vertex 1.28647 10.8817 0
      vertex 2.03647 11.4266 0
    endloop
  endfacet
  facet normal -0.587785 -0.809017 0
    outer loop
      vertex 2.96352 11.4266 0
      vertex 3.71352 10.8817 3
      vertex 2.96352 11.4266 3
    endloop
  endfacet
  facet normal -0.587785 -0.809017 -0
    outer loop
      vertex 3.71352 10.8817 3
      vertex 2.96352 11.4266 0
      vertex 3.71352 10.8817 0
    endloop
  endfacet
  facet normal 0.951057 -0.309017 0
    outer loop
      vertex 1 10 3
      vertex 1.28647 10.8817 0
      vertex 1.28647 10.8817 3
    endloop
  endfacet
  facet normal 0.951057 -0.309017 0
    outer loop
      vertex 1.28647 10.8817 0
      vertex 1 10 3
      vertex 1 10 0
    endloop
  endfacet
  facet normal 0 -1 0
    outer loop
      vertex 2.03647 11.4266 0
      vertex 2.96352 11.4266 3
      vertex 2.03647 11.4266 3
    endloop
  endfacet
  facet normal 0 -1 -0
    outer loop
      vertex 2.96352 11.4266 3
      vertex 2.03647 11.4266 0
      vertex 2.96352 11.4266 0
    endloop
  endfacet
  facet normal 0.951057 0.309016 0
    outer loop
      vertex 1.28647 9.11832 3
      vertex 1 10 0
      vertex 1 10 3
    endloop
  endfacet
  facet normal 0.951057 0.309016 0
    outer loop
      vertex 1 10 0
      vertex 1.28647 9.11832 3
      vertex 1.28647 9.11832 0
    endloop
  endfacet
  facet normal 0.587785 0.809017 -0
    outer loop
      vertex 2.03647 8.57341 0
      vertex 1.28647 9.11832 3
      vertex 2.03647 8.57341 3
    endloop
  endfacet
  facet normal 0.587785 0.809017 0
    outer loop
      vertex 1.28647 9.11832 3
      vertex 2.03647 8.57341 0
      vertex 1.28647 9.11832 0
    endloop
  endfacet
  facet normal -0.951056 0.309017 0
    outer loop
      vertex 3.71352 9.11832 0
      vertex 4 10 3
      vertex 4 10 0
    endloop
  endfacet
  facet normal -0.951056 0.309017 0
    outer loop
      vertex 4 10 3
      vertex 3.71352 9.11832 0
      vertex 3.71352 9.11832 3
    endloop
  endfacet
  facet normal 0 1 -0
    outer loop
      vertex 2.96352 8.57341 0
      vertex 2.03647 8.57341 3
      vertex 2.96352 8.57341 3
    endloop
  endfacet
  facet normal 0 1 0
    outer loop
      vertex 2.03647 8.57341 3
      vertex 2.96352 8.57341 0
      vertex 2.03647 8.57341 0
    endloop
  endfacet
  facet normal -0.951056 -0.309018 0
    outer loop
      vertex 4 30 0
      vertex 3.71352 30.8817 3
      vertex 3.71352 30.8817 0
    endloop
  endfacet
  facet normal -0.951056 -0.309018 0
    outer loop
      vertex 3.71352 30.8817 3
      vertex 4 30 0
      vertex 4 30 3
    endloop
  endfacet
  facet normal -0.587785 0.809017 0
    outer loop
      vertex 3.71352 29.1183 0
      vertex 2.96352 28.5734 3
      vertex 3.71352 29.1183 3
    endloop
  endfacet
  facet normal -0.587785 0.809017 0
    outer loop
      vertex 2.96352 28.5734 3
      vertex 3.71352 29.1183 0
      vertex 2.96352 28.5734 0
    endloop
  endfacet
  facet normal 0.587785 -0.809017 0
    outer loop
      vertex 1.28647 30.8817 0
      vertex 2.03647 31.4266 3
      vertex 1.28647 30.8817 3
    endloop
  endfacet
  facet normal 0.587785 -0.809017 0
    outer loop
      vertex 2.03647 31.4266 3
      vertex 1.28647 30.8817 0
      vertex 2.03647 31.4266 0
    endloop
  endfacet
  facet normal -0.587785 -0.809017 0
    outer loop
      vertex 2.96352 31.4266 0
      vertex 3.71352 30.8817 3
      vertex 2.96352 31.4266 3
    endloop
  endfacet
  facet normal -0.587785 -0.809017 -0
    outer loop
      vertex 3.71352 30.8817 3
      vertex 2.96352 31.4266 0
      vertex 3.71352 30.8817 0
    endloop
  endfacet
  facet normal 0.951057 -0.309017 0
    outer loop
      vertex 1 30 3
      vertex 1.28647 30.8817 0
      vertex 1.28647 30.8817 3
    endloop
  endfacet
  facet normal 0.951057 -0.309017 0
    outer loop
      vertex 1.28647 30.8817 0
      vertex 1 30 3
      vertex 1 30 0
    endloop
  endfacet
  facet normal -0.951056 0.309017 0
    outer loop
      vertex 3.71352 29.1183 0
      vertex 4 30 3
      vertex 4 30 0
    endloop
  endfacet
  facet normal -0.951056 0.309017 0
    outer loop
      vertex 4 30 3
      vertex 3.71352 29.1183 0
      vertex 3.71352 29.1183 3
    endloop
  endfacet
  facet normal 0 -1 0
    outer loop
      vertex 2.03647 31.4266 0
      vertex 2.96352 31.4266 3
      vertex 2.03647 31.4266 3
    endloop
  endfacet
  facet normal 0 -1 -0
    outer loop
      vertex 2.96352 31.4266 3
      vertex 2.03647 31.4266 0
      vertex 2.96352 31.4266 0
    endloop
  endfacet
  facet normal 0.951057 0.309016 0
    outer loop
      vertex 1.28647 29.1183 3
      vertex 1 30 0
      vertex 1 30 3
    endloop
  endfacet
  facet normal 0.951057 0.309016 0
    outer loop
      vertex 1 30 0
      vertex 1.28647 29.1183 3
      vertex 1.28647 29.1183 0
    endloop
  endfacet
  facet normal 0.587785 0.809017 -0
    outer loop
      vertex 2.03647 28.5734 0
      vertex 1.28647 29.1183 3
      vertex 2.03647 28.5734 3
    endloop
  endfacet
  facet normal 0.587785 0.809017 0
    outer loop
      vertex 1.28647 29.1183 3
      vertex 2.03647 28.5734 0
      vertex 1.28647 29.1183 0
    endloop
  endfacet
  facet normal 0 1 -0
    outer loop
      vertex 2.96352 28.5734 0
      vertex 2.03647 28.5734 3
      vertex 2.96352 28.5734 3
    endloop
  endfacet
  facet normal 0 1 0
    outer loop
      vertex 2.03647 28.5734 3
      vertex 2.96352 28.5734 0
      vertex 2.03647 28.5734 0
    endloop
  endfacet
  facet normal -0.951056 -0.309018 0
    outer loop
      vertex 4 50 0
      vertex 3.71352 50.8817 3
      vertex 3.71352 50.8817 0
    endloop
  endfacet
  facet normal -0.951056 -0.309018 0
    outer loop
      vertex 3.71352 50.8817 3
      vertex 4 50 0
      vertex 4 50 3
    endloop
  endfacet
  facet normal -0.587785 0.809017 0
    outer loop
      vertex 3.71352 49.1183 0
      vertex 2.96352 48.5734 3
      vertex 3.71352 49.1183 3
    endloop
  endfacet
  facet normal -0.587785 0.809017 0
    outer loop
      vertex 2.96352 48.5734 3
      vertex 3.71352 49.1183 0
      vertex 2.96352 48.5734 0
    endloop
  endfacet
  facet normal 0.587785 -0.809017 0
    outer loop
      vertex 1.28647 50.8817 0
      vertex 2.03647 51.4266 3
      vertex 1.28647 50.8817 3
    endloop
  endfacet
  facet normal 0.587785 -0.809017 0
    outer loop
      vertex 2.03647 51.4266 3
      vertex 1.28647 50.8817 0
      vertex 2.03647 51.4266 0
    endloop
  endfacet
  facet normal -0.587785 -0.809017 0
    outer loop
      vertex 2.96352 51.4266 0
      vertex 3.71352 50.8817 3
      vertex 2.96352 51.4266 3
    endloop
  endfacet
  facet normal -0.587785 -0.809017 -0
    outer loop
      vertex 3.71352 50.8817 3
      vertex 2.96352 51.4266 0
      vertex 3.71352 50.8817 0
    endloop
  endfacet
  facet normal 0.951056 -0.309017 0
    outer loop
      vertex 1 50 3
      vertex 1.28647 50.8817 0
      vertex 1.28647 50.8817 3
    endloop
  endfacet
  facet normal 0.951056 -0.309017 0
    outer loop
      vertex 1.28647 50.8817 0
      vertex 1 50 3
      vertex 1 50 0
    endloop
  endfacet
  facet normal 0 -1 0
    outer loop
      vertex 2.03647 51.4266 0
      vertex 2.96352 51.4266 3
      vertex 2.03647 51.4266 3
    endloop
  endfacet
  facet normal 0 -1 -0
    outer loop
      vertex 2.96352 51.4266 3
      vertex 2.03647 51.4266 0
      vertex 2.96352 51.4266 0
    endloop
  endfacet
  facet normal 0.951057 0.309016 0
    outer loop
      vertex 1.28647 49.1183 3
      vertex 1 50 0
      vertex 1 50 3
    endloop
  endfacet
  facet normal 0.951057 0.309016 0
    outer loop
      vertex 1 50 0
      vertex 1.28647 49.1183 3
      vertex 1.28647 49.1183 0
    endloop
  endfacet
  facet normal 0.587785 0.809017 -0
    outer loop
      vertex 2.03647 48.5734 0
      vertex 1.28647 49.1183 3
      vertex 2.03647 48.5734 3
    endloop
  endfacet
  facet normal 0.587785 0.809017 0
    outer loop
      vertex 1.28647 49.1183 3
      vertex 2.03647 48.5734 0
      vertex 1.28647 49.1183 0
    endloop
  endfacet
  facet normal -0.951056 0.309017 0
    outer loop
      vertex 3.71352 49.1183 0
      vertex 4 50 3
      vertex 4 50 0
    endloop
  endfacet
  facet normal -0.951056 0.309017 0
    outer loop
      vertex 4 50 3
      vertex 3.71352 49.1183 0
      vertex 3.71352 49.1183 3
    endloop
  endfacet
  facet normal 0 1 -0
    outer loop
      vertex 2.96352 48.5734 0
      vertex 2.03647 48.5734 3
      vertex 2.96352 48.5734 3
    endloop
  endfacet
  facet normal 0 1 0
    outer loop
      vertex 2.03647 48.5734 3
      vertex 2.96352 48.5734 0
      vertex 2.03647 48.5734 0
    endloop
  endfacet
  facet normal -0.951056 -0.309018 0
    outer loop
      vertex 4 -70 0
      vertex 3.71352 -69.1183 3
      vertex 3.71352 -69.1183 0
    endloop
  endfacet
  facet normal -0.951056 -0.309018 0
    outer loop
      vertex 3.71352 -69.1183 3
      vertex 4 -70 0
      vertex 4 -70 3
    endloop
  endfacet
  facet normal -0.587785 0.809017 0
    outer loop
      vertex 3.71352 -70.8817 0
      vertex 2.96352 -71.4266 3
      vertex 3.71352 -70.8817 3
    endloop
  endfacet
  facet normal -0.587785 0.809017 0
    outer loop
      vertex 2.96352 -71.4266 3
      vertex 3.71352 -70.8817 0
      vertex 2.96352 -71.4266 0
    endloop
  endfacet
  facet normal 0.587785 -0.809017 0
    outer loop
      vertex 1.28647 -69.1183 0
      vertex 2.03647 -68.5734 3
      vertex 1.28647 -69.1183 3
    endloop
  endfacet
  facet normal 0.587785 -0.809017 0
    outer loop
      vertex 2.03647 -68.5734 3
      vertex 1.28647 -69.1183 0
      vertex 2.03647 -68.5734 0
    endloop
  endfacet
  facet normal -0.587785 -0.809017 0
    outer loop
      vertex 2.96352 -68.5734 0
      vertex 3.71352 -69.1183 3
      vertex 2.96352 -68.5734 3
    endloop
  endfacet
  facet normal -0.587785 -0.809017 -0
    outer loop
      vertex 3.71352 -69.1183 3
      vertex 2.96352 -68.5734 0
      vertex 3.71352 -69.1183 0
    endloop
  endfacet
  facet normal 0.951056 -0.309017 0
    outer loop
      vertex 1 -70 3
      vertex 1.28647 -69.1183 0
      vertex 1.28647 -69.1183 3
    endloop
  endfacet
  facet normal 0.951056 -0.309017 0
    outer loop
      vertex 1.28647 -69.1183 0
      vertex 1 -70 3
      vertex 1 -70 0
    endloop
  endfacet
  facet normal -0.951056 0.309018 0
    outer loop
      vertex 3.71352 -70.8817 0
      vertex 4 -70 3
      vertex 4 -70 0
    endloop
  endfacet
  facet normal -0.951056 0.309018 0
    outer loop
      vertex 4 -70 3
      vertex 3.71352 -70.8817 0
      vertex 3.71352 -70.8817 3
    endloop
  endfacet
  facet normal 0 -1 0
    outer loop
      vertex 2.03647 -68.5734 0
      vertex 2.96352 -68.5734 3
      vertex 2.03647 -68.5734 3
    endloop
  endfacet
  facet normal 0 -1 -0
    outer loop
      vertex 2.96352 -68.5734 3
      vertex 2.03647 -68.5734 0
      vertex 2.96352 -68.5734 0
    endloop
  endfacet
  facet normal 0.951056 0.309017 0
    outer loop
      vertex 1.28647 -70.8817 3
      vertex 1 -70 0
      vertex 1 -70 3
    endloop
  endfacet
  facet normal 0.951056 0.309017 0
    outer loop
      vertex 1 -70 0
      vertex 1.28647 -70.8817 3
      vertex 1.28647 -70.8817 0
    endloop
  endfacet
  facet normal 0 1 -0
    outer loop
      vertex 2.96352 -71.4266 0
      vertex 2.03647 -71.4266 3
      vertex 2.96352 -71.4266 3
    endloop
  endfacet
  facet normal 0 1 0
    outer loop
      vertex 2.03647 -71.4266 3
      vertex 2.96352 -71.4266 0
      vertex 2.03647 -71.4266 0
    endloop
  endfacet
  facet normal 0.587785 0.809017 -0
    outer loop
      vertex 2.03647 -71.4266 0
      vertex 1.28647 -70.8817 3
      vertex 2.03647 -71.4266 3
    endloop
  endfacet
  facet normal 0.587785 0.809017 0
    outer loop
      vertex 1.28647 -70.8817 3
      vertex 2.03647 -71.4266 0
      vertex 1.28647 -70.8817 0
    endloop
  endfacet
  facet normal -0.951056 -0.309018 0
    outer loop
      vertex 4 70 0
      vertex 3.71352 70.8817 3
      vertex 3.71352 70.8817 0
    endloop
  endfacet
  facet normal -0.951056 -0.309018 0
    outer loop
      vertex 3.71352 70.8817 3
      vertex 4 70 0
      vertex 4 70 3
    endloop
  endfacet
  facet normal -0.587785 0.809017 0
    outer loop
      vertex 3.71352 69.1183 0
      vertex 2.96352 68.5734 3
      vertex 3.71352 69.1183 3
    endloop
  endfacet
  facet normal -0.587785 0.809017 0
    outer loop
      vertex 2.96352 68.5734 3
      vertex 3.71352 69.1183 0
      vertex 2.96352 68.5734 0
    endloop
  endfacet
  facet normal 0.587785 -0.809017 0
    outer loop
      vertex 1.28647 70.8817 0
      vertex 2.03647 71.4266 3
      vertex 1.28647 70.8817 3
    endloop
  endfacet
  facet normal 0.587785 -0.809017 0
    outer loop
      vertex 2.03647 71.4266 3
      vertex 1.28647 70.8817 0
      vertex 2.03647 71.4266 0
    endloop
  endfacet
  facet normal -0.587785 -0.809017 0
    outer loop
      vertex 2.96352 71.4266 0
      vertex 3.71352 70.8817 3
      vertex 2.96352 71.4266 3
    endloop
  endfacet
  facet normal -0.587785 -0.809017 -0
    outer loop
      vertex 3.71352 70.8817 3
      vertex 2.96352 71.4266 0
      vertex 3.71352 70.8817 0
    endloop
  endfacet
  facet normal 0.951056 -0.309017 0
    outer loop
      vertex 1 70 3
      vertex 1.28647 70.8817 0
      vertex 1.28647 70.8817 3
    endloop
  endfacet
  facet normal 0.951056 -0.309017 0
    outer loop
      vertex 1.28647 70.8817 0
      vertex 1 70 3
      vertex 1 70 0
    endloop
  endfacet
  facet normal -0.951056 0.309018 0
    outer loop
      vertex 3.71352 69.1183 0
      vertex 4 70 3
      vertex 4 70 0
    endloop
  endfacet
  facet normal -0.951056 0.309018 0
    outer loop
      vertex 4 70 3
      vertex 3.71352 69.1183 0
      vertex 3.71352 69.1183 3
    endloop
  endfacet
  facet normal 0 -1 0
    outer loop
      vertex 2.03647 71.4266 0
      vertex 2.96352 71.4266 3
      vertex 2.03647 71.4266 3
    endloop
  endfacet
  facet normal 0 -1 -0
    outer loop
      vertex 2.96352 71.4266 3
      vertex 2.03647 71.4266 0
      vertex 2.96352 71.4266 0
    endloop
  endfacet
  facet normal 0.951056 0.309017 0
    outer loop
      vertex 1.28647 69.1183 3
      vertex 1 70 0
      vertex 1 70 3
    endloop
  endfacet
  facet normal 0.951056 0.309017 0
    outer loop
      vertex 1 70 0
      vertex 1.28647 69.1183 3
      vertex 1.28647 69.1183 0
    endloop
  endfacet
  facet normal 0 1 -0
    outer loop
      vertex 2.96352 68.5734 0
      vertex 2.03647 68.5734 3
      vertex 2.96352 68.5734 3
    endloop
  endfacet
  facet normal 0 1 0
    outer loop
      vertex 2.03647 68.5734 3
      vertex 2.96352 68.5734 0
      vertex 2.03647 68.5734 0
    endloop
  endfacet
  facet normal 0.587785 0.809017 -0
    outer loop
      vertex 2.03647 68.5734 0
      vertex 1.28647 69.1183 3
      vertex 2.03647 68.5734 3
    endloop
  endfacet
  facet normal 0.587785 0.809017 0
    outer loop
      vertex 1.28647 69.1183 3
      vertex 2.03647 68.5734 0
      vertex 1.28647 69.1183 0
    endloop
  endfacet
  facet normal -0.951057 0 -0.309017
    outer loop
      vertex 0.666666 -80 11.25
      vertex 0.380192 -77 12.1317
      vertex 0.666666 -77 11.25
    endloop
  endfacet
  facet normal -0.951057 -0 -0.309017
    outer loop
      vertex 0.380192 -77 12.1317
      vertex 0.666666 -80 11.25
      vertex 0.380192 -80 12.1317
    endloop
  endfacet
  facet normal -0.587785 0 -0.809017
    outer loop
      vertex -0.369808 -80 12.6766
      vertex 0.380192 -77 12.1317
      vertex 0.380192 -80 12.1317
    endloop
  endfacet
  facet normal -0.587785 0 -0.809017
    outer loop
      vertex 0.380192 -77 12.1317
      vertex -0.369808 -80 12.6766
      vertex -0.369808 -77 12.6766
    endloop
  endfacet
  facet normal 0.951057 0 -0.309017
    outer loop
      vertex -2.04686 -80 12.1317
      vertex -2.33333 -77 11.25
      vertex -2.04686 -77 12.1317
    endloop
  endfacet
  facet normal 0.951057 0 -0.309017
    outer loop
      vertex -2.33333 -77 11.25
      vertex -2.04686 -80 12.1317
      vertex -2.33333 -80 11.25
    endloop
  endfacet
  facet normal 0.951057 -0 0.309016
    outer loop
      vertex -2.33333 -80 11.25
      vertex -2.04686 -77 10.3683
      vertex -2.33333 -77 11.25
    endloop
  endfacet
  facet normal 0.951057 0 0.309016
    outer loop
      vertex -2.04686 -77 10.3683
      vertex -2.33333 -80 11.25
      vertex -2.04686 -80 10.3683
    endloop
  endfacet
  facet normal 0.587785 0 0.809017
    outer loop
      vertex -2.04686 -77 10.3683
      vertex -1.29686 -80 9.82341
      vertex -1.29686 -77 9.82341
    endloop
  endfacet
  facet normal 0.587785 0 0.809017
    outer loop
      vertex -1.29686 -80 9.82341
      vertex -2.04686 -77 10.3683
      vertex -2.04686 -80 10.3683
    endloop
  endfacet
  facet normal -0 0 1
    outer loop
      vertex -1.29686 -77 9.82341
      vertex -0.369808 -80 9.82341
      vertex -0.369808 -77 9.82341
    endloop
  endfacet
  facet normal 0 0 1
    outer loop
      vertex -0.369808 -80 9.82341
      vertex -1.29686 -77 9.82341
      vertex -1.29686 -80 9.82341
    endloop
  endfacet
  facet normal -0.587785 0 0.809017
    outer loop
      vertex -0.369808 -77 9.82341
      vertex 0.380192 -80 10.3683
      vertex 0.380192 -77 10.3683
    endloop
  endfacet
  facet normal -0.587785 0 0.809017
    outer loop
      vertex 0.380192 -80 10.3683
      vertex -0.369808 -77 9.82341
      vertex -0.369808 -80 9.82341
    endloop
  endfacet
  facet normal -0.951057 0 0.309016
    outer loop
      vertex 0.380192 -80 10.3683
      vertex 0.666666 -77 11.25
      vertex 0.380192 -77 10.3683
    endloop
  endfacet
  facet normal -0.951057 0 0.309016
    outer loop
      vertex 0.666666 -77 11.25
      vertex 0.380192 -80 10.3683
      vertex 0.666666 -80 11.25
    endloop
  endfacet
  facet normal 0 0 -1
    outer loop
      vertex -1.29686 -80 12.6766
      vertex -0.369808 -77 12.6766
      vertex -0.369808 -80 12.6766
    endloop
  endfacet
  facet normal -0 0 -1
    outer loop
      vertex -0.369808 -77 12.6766
      vertex -1.29686 -80 12.6766
      vertex -1.29686 -77 12.6766
    endloop
  endfacet
  facet normal 0.587785 0 -0.809017
    outer loop
      vertex -2.04686 -80 12.1317
      vertex -1.29686 -77 12.6766
      vertex -1.29686 -80 12.6766
    endloop
  endfacet
  facet normal 0.587785 0 -0.809017
    outer loop
      vertex -1.29686 -77 12.6766
      vertex -2.04686 -80 12.1317
      vertex -2.04686 -77 12.1317
    endloop
  endfacet
endsolid OpenSCAD_Model
